<?xml version="1.0" standalone="no"?>
<!DOCTYPE svg PUBLIC "-//W3C//DTD SVG 20010904//EN"
 "http://www.w3.org/TR/2001/REC-SVG-20010904/DTD/svg10.dtd">
<svg version="1.0" xmlns="http://www.w3.org/2000/svg"
 width="36.000000pt" height="29.000000pt" viewBox="0 0 36.000000 29.000000"
 preserveAspectRatio="xMidYMid meet">
<metadata>
Created by potrace 1.16, written by Peter Selinger 2001-2019
</metadata>
<g transform="translate(0.000000,29.000000) scale(0.100000,-0.100000)"
fill="#000000" stroke="none">
<path d="M76 249 c-58 -51 -76 -85 -76 -143 0 -87 86 -140 140 -86 44 44 8
115 -56 108 -26 -3 -35 0 -40 14 -9 29 4 54 51 97 25 23 45 44 45 46 0 13 -22
1 -64 -36z"/>
<path d="M281 260 c-72 -53 -103 -127 -81 -194 20 -61 79 -84 128 -50 28 19
30 74 4 97 -10 10 -35 17 -55 17 -35 0 -37 1 -37 34 0 28 8 42 47 75 56 50 52
63 -6 21z"/>
</g>
</svg>
