<?xml version="1.0" standalone="no"?>
<!DOCTYPE svg PUBLIC "-//W3C//DTD SVG 20010904//EN"
 "http://www.w3.org/TR/2001/REC-SVG-20010904/DTD/svg10.dtd">
<svg version="1.0" xmlns="http://www.w3.org/2000/svg"
 width="1280.000000pt" height="839.000000pt" viewBox="0 0 1280.000000 839.000000"
 preserveAspectRatio="xMidYMid meet">
<metadata>
Created by potrace 1.16, written by Peter Selinger 2001-2019
</metadata>
<g transform="translate(0.000000,839.000000) scale(0.100000,-0.100000)"
fill="#000000" stroke="none">
<path d="M5753 3581 c-103 -155 -300 -448 -438 -653 -137 -205 -406 -605 -596
-888 -190 -283 -349 -521 -353 -527 -6 -10 45 -13 242 -13 l249 0 143 215 144
215 845 0 846 0 146 -213 146 -212 256 -3 c142 -1 257 1 257 4 0 6 -194 291
-540 794 -59 85 -225 328 -370 540 -145 212 -361 527 -481 700 l-216 315 -46
3 -46 3 -188 -280z m517 -829 l286 -417 -565 -3 c-310 -1 -566 0 -569 2 -4 5
550 836 558 835 3 0 133 -188 290 -417z"/>
<path d="M0 2665 l0 -1165 235 0 235 0 0 700 c0 385 2 700 5 700 5 0 127 -111
772 -702 265 -243 284 -258 320 -258 37 0 57 18 538 479 l500 479 5 -696 5
-697 233 -3 232 -2 0 1165 0 1165 -54 0 -54 0 -697 -665 c-383 -366 -701 -665
-705 -665 -5 0 -91 76 -192 168 -101 92 -372 341 -603 552 -231 211 -475 435
-543 497 l-123 113 -55 0 -54 0 0 -1165z"/>
<path d="M7840 2665 l0 -1165 235 0 235 0 0 700 c0 385 2 700 5 700 5 0 127
-111 772 -702 265 -243 284 -258 320 -258 37 0 57 18 538 479 l500 479 5 -696
5 -697 233 -3 232 -2 0 1165 0 1165 -54 0 -54 0 -697 -665 c-383 -366 -701
-665 -705 -665 -5 0 -120 102 -257 227 -136 125 -408 374 -603 552 -195 179
-410 376 -478 438 l-123 113 -55 0 -54 0 0 -1165z"/>
<path d="M12230 3790 c0 -17 7 -20 40 -20 l40 0 2 -97 c0 -54 1 -105 2 -113 1
-9 13 -16 29 -18 l27 -3 0 115 0 116 40 0 c33 0 40 3 40 20 0 19 -7 20 -110
20 -103 0 -110 -1 -110 -20z"/>
<path d="M12486 3723 c-4 -48 -9 -109 -12 -135 -6 -46 -5 -48 19 -48 21 0 25
6 31 46 3 26 6 79 7 118 l1 71 37 -115 c34 -106 39 -115 63 -118 26 -3 28 1
65 115 l38 118 6 -115 c4 -63 7 -116 8 -117 0 -2 13 -3 27 -3 26 0 26 1 20 58
-3 31 -8 92 -12 135 l-6 77 -39 0 -38 0 -32 -99 -33 -99 -31 96 -31 97 -41 3
-41 3 -6 -88z"/>
<path d="M3660 2650 l0 -1150 235 0 235 0 0 1150 0 1150 -235 0 -235 0 0
-1150z"/>
<path d="M11500 2650 l0 -1150 235 0 235 0 0 1150 0 1150 -235 0 -235 0 0
-1150z"/>
<path d="M456 864 c-200 -44 -354 -155 -407 -292 -30 -79 -30 -194 1 -277 31
-79 119 -168 213 -213 116 -56 220 -76 397 -76 176 -1 278 16 398 66 l72 30 0
54 c0 30 -3 54 -6 54 -3 0 -24 -13 -47 -29 -122 -83 -231 -113 -411 -113 -307
-1 -466 94 -506 299 -15 78 0 177 38 246 77 143 264 216 517 203 145 -7 228
-25 318 -71 l67 -34 0 53 0 53 -42 13 c-108 33 -173 41 -348 45 -143 4 -201 1
-254 -11z"/>
<path d="M1683 869 c-69 -11 -198 -60 -252 -93 -66 -42 -125 -106 -157 -172
-26 -54 -29 -68 -29 -164 0 -92 3 -112 26 -161 54 -115 190 -210 364 -255 104
-27 342 -25 448 4 234 64 372 201 385 382 16 230 -147 400 -436 456 -80 15
-266 17 -349 3z m321 -64 c203 -43 318 -159 333 -335 15 -179 -85 -323 -262
-376 -79 -23 -215 -34 -312 -24 -257 27 -393 157 -393 376 0 191 129 327 345
363 80 14 215 12 289 -4z"/>
<path d="M3988 873 l-78 -4 0 -428 0 -429 237 -7 c340 -11 476 9 637 93 84 44
155 111 193 183 25 49 28 63 28 154 0 93 -2 105 -33 167 -42 85 -112 150 -217
198 -141 66 -181 73 -450 75 -132 1 -275 0 -317 -2z m577 -78 c142 -38 243
-112 286 -208 20 -44 24 -68 24 -157 0 -98 -2 -109 -30 -159 -51 -93 -129
-144 -274 -183 -85 -22 -332 -30 -473 -15 l-78 9 0 354 c0 275 3 356 13 359
71 27 432 27 532 0z"/>
<path d="M5570 864 c-193 -41 -331 -136 -392 -270 -19 -41 -23 -66 -23 -154 0
-93 3 -111 27 -163 53 -112 180 -203 348 -249 118 -31 346 -31 465 1 170 45
289 130 346 246 72 147 38 338 -80 443 -80 72 -191 123 -319 148 -92 18 -286
17 -372 -2z m390 -69 c178 -55 275 -165 287 -328 19 -252 -161 -400 -487 -399
-224 0 -370 67 -445 203 -25 47 -30 67 -33 149 -3 80 0 104 18 154 47 123 162
206 325 236 74 13 270 4 335 -15z"/>
<path d="M10130 865 c-260 -58 -424 -210 -438 -405 -11 -162 75 -300 238 -381
107 -53 214 -73 395 -73 177 -1 278 12 400 53 l80 26 3 178 2 177 -55 0 -55 0
0 -155 0 -154 -64 -20 c-108 -33 -186 -44 -321 -43 -207 0 -346 46 -421 137
-52 64 -67 115 -68 230 -1 88 2 107 26 156 46 100 128 164 263 206 49 15 91
18 225 17 213 -1 294 -21 413 -99 l27 -17 0 59 0 60 -42 13 c-109 33 -172 41
-353 45 -143 4 -206 1 -255 -10z"/>
<path d="M11245 866 c-169 -33 -256 -111 -257 -230 -1 -77 34 -132 107 -169
57 -28 182 -47 387 -57 112 -5 217 -14 234 -19 86 -25 124 -67 124 -138 0
-122 -140 -186 -405 -185 -192 1 -324 37 -431 118 -17 13 -34 24 -38 24 -4 0
-6 -26 -4 -57 l3 -58 65 -26 c113 -47 216 -64 400 -63 180 0 260 14 350 59
114 58 165 134 158 238 -5 80 -33 121 -102 153 -67 30 -149 42 -391 54 -222
11 -292 25 -337 70 -55 55 -29 153 51 195 15 7 65 21 111 31 174 35 423 2 545
-71 l55 -34 0 54 0 54 -55 20 c-91 34 -215 51 -369 50 -77 -1 -168 -6 -201
-13z"/>
<path d="M2660 439 l0 -430 38 3 37 3 5 367 5 367 115 -101 c169 -148 395
-354 557 -505 l141 -133 51 0 51 0 0 430 0 430 -37 0 -38 0 1 -327 c1 -181 -1
-344 -5 -362 l-6 -35 -180 160 c-211 188 -395 354 -527 477 l-95 87 -57 0 -56
0 0 -431z"/>
<path d="M6965 440 l0 -430 59 0 59 0 -7 143 -6 142 32 21 c18 12 72 49 119
82 l87 60 68 -56 c81 -67 214 -183 346 -304 l95 -88 77 0 c43 0 76 4 74 9 -1
5 -68 64 -148 132 -80 67 -207 178 -283 247 l-137 124 41 30 c56 41 384 257
439 290 l45 27 -81 1 -81 0 -104 -78 c-234 -176 -569 -412 -585 -412 -4 0 -4
110 0 245 l7 245 -58 0 -58 0 0 -430z"/>
<path d="M8130 440 l0 -431 55 3 55 3 3 428 2 427 -57 0 -58 0 0 -430z"/>
<path d="M8500 439 l0 -430 37 3 38 3 -1 310 c-1 171 2 336 5 367 l6 58 225
-202 c124 -110 307 -277 407 -369 l181 -169 51 0 51 0 0 430 0 430 -40 0 -40
0 0 -360 c0 -198 -3 -360 -6 -360 -7 0 -292 253 -518 460 -87 80 -187 171
-221 203 -61 55 -65 57 -119 57 l-56 0 0 -431z"/>
</g>
</svg>
